<?xml version="1.0" standalone="no"?><!DOCTYPE svg PUBLIC "-//W3C//DTD SVG 1.1//EN" "http://www.w3.org/Graphics/SVG/1.1/DTD/svg11.dtd"><svg xmlns:xlink="http://www.w3.org/1999/xlink" xmlns="http://www.w3.org/2000/svg" version="1.1" width="200" height="200" viewBox="0 0 200 200"><defs><style type="text/css"><![CDATA[
@font-face {
  font-family: "ifont";
  src: url("//at.alicdn.com/t/font_1442373896_4754455.eot?#iefix") format("embedded-opentype"), url("//at.alicdn.com/t/font_1442373896_4754455.woff") format("woff"), url("//at.alicdn.com/t/font_1442373896_4754455.ttf") format("truetype"), url("//at.alicdn.com/t/font_1442373896_4754455.svg#ifont") format("svg");
}

]]></style></defs><g class="transform-group"><g transform="scale(0.1953125, 0.1953125)"><path d="M759.08992 313.44512 905.73056 166.6048 859.44448 120.32l-158.9248 158.9248C643.58528 250.78016 581.12 232.96 512.50944 232.96 344.77952 232.96 214.11968 339.8656 53.76 513.53472c71.2704 76.5952 136.80512 148.8896 211.55968 200.91008L119.29472 860.46464l46.2848 46.2848 157.48992-157.48992c55.30112 28.06016 116.74112 44.84992 189.44 44.84992 204.5952 0 355.12448-167.52512 458.75456-277.50016C913.92 446.76992 843.47008 369.56032 759.08992 313.44512L759.08992 313.44512zM329.00992 513.53472c0-103.2192 82.3296-186.97984 183.49952-186.97984 39.53024 0 76.18944 12.69504 106.09024 34.60992l-103.83488 103.83488c-1.43488-5.3248-2.25536-11.0592-2.25536-16.99968 0-16.18048 5.94048-30.9248 15.5648-42.39488-5.12-0.82048-10.24-1.22496-15.5648-1.22496-58.98112 0-107.1104 48.94464-107.1104 109.15456 0 17.61536 4.09984 34.40512 11.47008 49.15456L360.96 618.80448C340.8896 588.70016 329.00992 552.45056 329.00992 513.53472L329.00992 513.53472zM512.50944 700.51968c-39.52384 0-76.1856-12.70016-106.08384-34.61504l56.11392-56.1152c14.9504 8.19456 31.95008 12.70016 49.9712 12.70016 58.98496 0 107.1104-48.94976 107.1104-109.15968 0-4.7104-0.40448-9.41952-0.81536-14.12992-11.26528 8.80512-25.1904 14.12992-40.5504 14.12992-5.94048 0-11.47008-0.82048-16.99968-2.25024l103.0144-103.0144c20.0704 29.89952 31.95008 66.14912 31.95008 105.26464C696.01536 616.7552 613.68448 700.51968 512.50944 700.51968L512.50944 700.51968zM512.50944 700.51968" fill="#272636"></path></g></g></svg>